<?xml version="1.0" encoding="UTF-8" standalone="no"?> <!-- Created with Vectornator for iOS (http://vectornator.io/) --><!DOCTYPE svg PUBLIC "-//W3C//DTD SVG 1.1//EN" "http://www.w3.org/Graphics/SVG/1.1/DTD/svg11.dtd">
<svg xml:space="preserve" viewBox="0 0 512 512" height="100%" style="fill-rule:nonzero;clip-rule:evenodd;stroke-linecap:round;stroke-linejoin:round;" xmlns="http://www.w3.org/2000/svg" version="1.1" xmlns:xlink="http://www.w3.org/1999/xlink" width="100%" xmlns:vectornator="http://vectornator.io">
<metadata>
<vectornator:setting value="true" key="VNDimensionsVisible"/>
<vectornator:setting key="WDSnapToPoints" value="false"/>
<vectornator:setting value="false" key="VNPencilOnly"/>
<vectornator:setting value="true" key="WDGuidesVisible"/>
<vectornator:setting key="WDDynamicGuides" value="false"/>
<vectornator:setting value="false" key="WDOutlineMode"/>
<vectornator:setting value="true" key="WDRulersVisible"/>
<vectornator:setting key="UndoHistoryDisabled" value="false"/>
<vectornator:setting key="WDIsolateActiveLayer" value="false"/>
<vectornator:setting key="IsTimeLapseWatermarkDisabled" value="false"/>
<vectornator:setting value="false" key="WDCMYKEnabledKey"/>
<vectornator:setting key="WDSnapToGrid" value="false"/>
<vectornator:setting value="false" key="WDDisplayWhiteBackground"/>
<vectornator:setting key="WDSnapToEdges" value="false"/>
<vectornator:setting value="true" key="VNSnapToGuides"/>
<vectornator:setting key="WDUnits" value="Pixels"/>
</metadata>
<defs/>
<g vectornator:layerName="Layer 1" id="Layer 1">
<path stroke-linecap="round" d="M151.068+352.291C140.173+348.86+133.875+344.802+133.875+340.454C133.875+328.125+184.51+318.131+246.971+318.131C309.432+318.131+360.066+328.125+360.066+340.454C360.066+352.782+309.432+362.777+246.971+362.777C206.539+362.777+171.063+358.589+151.068+352.291" opacity="1" fill="#000000" stroke-width="2" fill-rule="evenodd" stroke="#ffffff" stroke-linejoin="round"/>
<path fill="none" stroke-linejoin="round" stroke-width="2" stroke-linecap="round" stroke="#ffffff" d="M133.481+303.893L133.75+340.001" opacity="1"/>
<path fill="none" stroke-linecap="round" stroke="#ffffff" stroke-width="2" stroke-linejoin="round" d="M359.886+303.128L359.988+340.475" opacity="1"/>
<path opacity="1" d="M134.517+303.667L358.556+303.771L358.882+340.759L134.833+340.786L134.855+337.901L134.517+303.667Z" fill="#000000" fill-rule="evenodd"/>
<path fill="#000000" opacity="1" d="M133.48+303.066C133.48+290.737+184.115+280.743+246.576+280.743C309.037+280.743+359.672+290.737+359.672+303.066C359.672+315.394+309.037+325.389+246.576+325.389C184.115+325.389+133.48+315.394+133.48+303.066Z" stroke-linecap="round" stroke="#ffffff" fill-rule="evenodd" stroke-linejoin="round" stroke-width="2"/>
<path opacity="1" fill="#fcfcfc" fill-rule="evenodd" d="M185.166+353.846L175.616+331.259L175.077+348.946C175.027+350.573+175.172+351.594+175.511+352.008C175.976+352.569+176.729+352.866+177.77+352.897L178.707+352.926L178.685+353.648L169.471+353.367L169.493+352.645L170.43+352.673C171.549+352.708+172.353+352.393+172.842+351.731C173.141+351.323+173.314+350.378+173.359+348.894L173.886+331.597C173.922+330.426+173.818+329.576+173.573+329.047C173.403+328.664+173.077+328.339+172.597+328.07C172.117+327.801+171.336+327.65+170.256+327.617L170.278+326.895L177.775+327.124L186.748+348.13L196.828+327.705L204.325+327.934L204.303+328.656L203.385+328.628C202.253+328.593+201.442+328.907+200.953+329.57C200.654+329.978+200.482+330.923+200.437+332.407L199.909+349.704C199.859+351.331+200.011+352.351+200.363+352.766C200.828+353.327+201.581+353.624+202.622+353.655L203.539+353.683L203.517+354.406L192.272+354.063L192.295+353.34L193.232+353.369C194.364+353.404+195.168+353.089+195.644+352.427C195.943+352.019+196.115+351.073+196.161+349.589L196.7+331.902L185.811+353.866L185.166+353.846Z"/>
<path fill="#fcfcfc" opacity="1" d="M216.94+328.385C217.487+328.392+217.95+328.589+218.33+328.978C218.709+329.367+218.895+329.835+218.889+330.382C218.882+330.929+218.684+331.395+218.295+331.781C217.906+332.167+217.438+332.356+216.891+332.349C216.345+332.343+215.878+332.142+215.493+331.746C215.107+331.351+214.917+330.88+214.924+330.333C214.931+329.786+215.129+329.323+215.517+328.943C215.906+328.564+216.381+328.378+216.94+328.385ZM218.446+337.76L218.268+352.134C218.254+353.253+218.326+354+218.484+354.373C218.643+354.746+218.88+355.025+219.197+355.212C219.513+355.398+220.095+355.496+220.941+355.507L220.933+356.21L212.242+356.102L212.251+355.399C213.123+355.41+213.71+355.333+214.011+355.167C214.313+355.002+214.554+354.725+214.735+354.336C214.915+353.948+215.012+353.2+215.026+352.093L215.111+345.199C215.135+343.259+215.092+342.002+214.982+341.428C214.896+341.01+214.757+340.719+214.563+340.554C214.37+340.388+214.104+340.304+213.766+340.3C213.401+340.295+212.957+340.387+212.434+340.576L212.169+339.87L217.586+337.749L218.446+337.76Z" fill-rule="evenodd"/>
<path fill="#fcfcfc" d="M246.412+357.123L236.178+334.838L236.178+352.533C236.178+354.161+236.353+355.177+236.705+355.58C237.187+356.127+237.949+356.401+238.99+356.401L239.928+356.401L239.928+357.123L230.709+357.123L230.709+356.401L231.646+356.401C232.766+356.401+233.561+356.062+234.029+355.385C234.316+354.968+234.459+354.018+234.459+352.533L234.459+335.229C234.459+334.057+234.329+333.211+234.068+332.69C233.886+332.312+233.551+331.996+233.062+331.742C232.574+331.488+231.79+331.362+230.709+331.362L230.709+330.639L238.209+330.639L247.818+351.362L257.271+330.639L264.771+330.639L264.771+331.362L263.853+331.362C262.721+331.362+261.92+331.7+261.451+332.377C261.165+332.794+261.021+333.744+261.021+335.229L261.021+352.533C261.021+354.161+261.204+355.177+261.568+355.58C262.05+356.127+262.812+356.401+263.853+356.401L264.771+356.401L264.771+357.123L253.521+357.123L253.521+356.401L254.459+356.401C255.592+356.401+256.386+356.062+256.842+355.385C257.128+354.968+257.271+354.018+257.271+352.533L257.271+334.838L247.057+357.123L246.412+357.123Z" opacity="1" fill-rule="evenodd"/>
<path opacity="1" d="M286.19+355.325L286.186+356.048L274.838+355.977L274.843+355.254L275.78+355.26C276.874+355.267+277.67+354.953+278.169+354.318C278.484+353.903+278.646+352.902+278.656+351.313L278.762+334.204C278.771+332.863+278.691+331.977+278.525+331.546C278.397+331.22+278.132+330.938+277.729+330.702C277.158+330.386+276.56+330.226+275.935+330.222L274.998+330.216L275.002+329.493L286.35+329.564L286.345+330.286L285.388+330.28C284.308+330.274+283.518+330.588+283.019+331.223C282.691+331.637+282.522+332.639+282.512+334.227L282.406+351.336C282.398+352.678+282.477+353.564+282.643+353.994C282.772+354.321+283.043+354.602+283.459+354.839C284.017+355.155+284.608+355.315+285.233+355.319L286.19+355.325Z" fill-rule="evenodd" fill="#fcfcfc"/>
<path fill="#fcfcfc" opacity="1" d="M321.413+353.596L314.344+353.733L305.139+341.528C304.476+341.567+303.936+341.59+303.519+341.598C303.35+341.601+303.168+341.602+302.972+341.599C302.777+341.596+302.575+341.591+302.366+341.582L302.516+349.275C302.549+350.942+302.751+351.973+303.124+352.37C303.629+352.933+304.377+353.205+305.366+353.186L306.401+353.165L306.415+353.888L295.07+354.109L295.056+353.386L296.052+353.367C297.171+353.345+297.965+352.965+298.432+352.227C298.698+351.818+298.816+350.858+298.787+349.348L298.453+332.242C298.421+330.576+298.219+329.544+297.846+329.148C297.327+328.585+296.567+328.313+295.564+328.333L294.568+328.352L294.554+327.629L304.201+327.442C307.013+327.387+309.09+327.552+310.432+327.936C311.775+328.32+312.922+329.053+313.874+330.135C314.827+331.217+315.317+332.519+315.347+334.042C315.379+335.67+314.876+337.092+313.838+338.311C312.8+339.529+311.173+340.407+308.957+340.945L314.573+348.435C315.856+350.155+316.953+351.293+317.862+351.848C318.772+352.404+319.95+352.745+321.399+352.873L321.413+353.596ZM302.343+340.351C302.59+340.347+302.805+340.346+302.987+340.349C303.17+340.352+303.319+340.352+303.436+340.35C305.962+340.3+307.855+339.717+309.116+338.598C310.377+337.48+310.991+336.074+310.958+334.382C310.926+332.728+310.383+331.394+309.327+330.379C308.272+329.365+306.892+328.874+305.187+328.907C304.432+328.922+303.412+329.065+302.128+329.338L302.343+340.351Z" fill-rule="evenodd"/>
<path fill-rule="evenodd" d="M246.773+127.728L246.773+127.728C295.744+127.728+335.443+167.427+335.443+216.398L335.443+216.398C335.443+265.368+295.744+305.067+246.773+305.067L246.773+305.067C197.802+305.067+158.104+265.368+158.104+216.398L158.104+216.398C158.104+167.427+197.802+127.728+246.773+127.728Z" opacity="1" stroke-linecap="round" stroke-linejoin="round" fill="#701dc0" stroke-width="3" stroke="#000000"/>
<path fill-rule="evenodd" fill="#932bf9" d="M240.411+129.396L240.449+129.299C284.773+129.299+320.11+169.33+320.11+216.43L320.11+216.43C320.11+263.529+284.178+301.711+239.853+301.711L239.853+301.711C195.529+301.711+159.597+263.529+159.597+216.43L159.597+216.43C159.597+169.33+196.086+129.396+240.411+129.396Z" opacity="1"/>
<path fill="#df45e3" opacity="1" d="M245.532+174.495C237.021+174.731+228.584+177.146+221.376+181.745C217.6+184.154+214.175+187.135+211.25+190.526C208.397+193.836+206.004+197.536+204.219+201.526C197.82+215.837+199.833+233.324+209.969+245.402C214.344+250.614+220.074+254.737+226.469+257.089C237.397+261.108+250.128+259.78+259.782+253.183C262.601+251.256+265.133+248.898+267.282+246.245C275.549+236.037+277.316+221.598+270.969+209.964C263.624+196.499+247.003+190.186+232.844+196.683C230.386+197.81+228.112+199.319+226.094+201.12C219.133+207.335+215.752+216.607+217.938+225.808C220.783+237.783+232.886+246.097+245.094+242.964C246.811+242.523+248.458+241.869+250+240.995C256.747+237.176+260.79+229.39+259.313+221.683C257.828+213.93+250.76+207.951+242.719+208.995C240.956+209.224+239.343+209.818+237.782+210.652C239.656+209.864+241.582+209.409+243.626+209.464C245.382+209.511+247.118+209.928+248.719+210.652C250.083+211.268+251.345+212.1+252.438+213.12C258.309+218.599+258.273+227.808+252.876+233.589C251.27+235.308+249.267+236.668+247.063+237.495C245.448+238.101+243.723+238.407+242+238.464C233.099+238.757+225.851+231.805+224.844+223.152C223.929+215.284+227.777+207.568+234.626+203.589C236.416+202.549+238.389+201.803+240.407+201.339C252.309+198.603+264.061+206.05+267.844+217.433C271.073+227.146+268.328+237.876+261.376+245.276C259.351+247.432+257.034+249.302+254.469+250.776C252.109+252.133+249.571+253.149+246.938+253.839C233.168+257.448+218.841+251.57+210.657+240.12C202.414+228.589+201.706+212.805+208.032+200.245C210.101+196.137+212.835+192.364+216.094+189.12C227.522+177.747+244.772+173.786+260.219+177.995C267.526+179.986+274.302+183.77+279.969+188.776C290.96+198.486+297.175+212.58+297.594+227.183C297.773+233.393+296.86+239.449+295.126+245.402C296.98+239.464+297.998+233.384+297.938+227.152C297.79+211.728+291.221+196.877+279.5+186.776C274.037+182.068+267.586+178.464+260.657+176.433C255.751+174.995+250.638+174.353+245.532+174.495Z" fill-rule="evenodd"/>
<path stroke-width="1" d="M146.963+183.138L150.885+188.463L137.727+198.157L133.804+192.832L146.963+183.138Z" fill-rule="evenodd" fill="#d2d1d1" stroke="#000000" stroke-linejoin="round" stroke-linecap="round" opacity="1"/>
<path fill-rule="evenodd" stroke-linejoin="round" stroke-width="1" opacity="1" stroke="#000000" fill="#d2d1d1" stroke-linecap="round" d="M113.004+179.189L116.256+176.142L128.025+188.702L124.773+191.749L113.004+179.189Z"/>
<path stroke="#000000" opacity="1" stroke-linejoin="round" d="M354.335+221.689L359.493+221.964L360.175+238.179L355.017+237.904L354.335+221.689Z" fill-rule="evenodd" stroke-linecap="round" fill="#d2d1d1" stroke-width="1"/>
<path fill="#051db8" stroke-linejoin="round" d="M360.019+204.709C360.019+202.279+362.093+200.308+364.651+200.308C367.208+200.308+369.282+202.279+369.282+204.709C369.282+207.139+367.208+209.11+364.651+209.11C362.093+209.11+360.019+207.139+360.019+204.709Z" stroke-linecap="round" opacity="1" fill-rule="evenodd" stroke-width="2" stroke="#000000"/>
<path fill-rule="evenodd" stroke="#000000" stroke-linecap="round" fill="#c33442" stroke-linejoin="round" stroke-width="2" opacity="1" d="M176.51+167.373C176.51+163.599+179.57+160.539+183.344+160.539C187.118+160.539+190.178+163.599+190.178+167.373C190.178+171.147+187.118+174.207+183.344+174.207C179.57+174.207+176.51+171.147+176.51+167.373Z"/>
<path fill-rule="evenodd" stroke-linejoin="round" opacity="1" fill="#051db7" stroke="#000000" d="M142.566+173.37C142.566+161.722+152.009+152.279+163.657+152.279C175.305+152.279+184.748+161.722+184.748+173.37C184.748+185.018+175.305+194.461+163.657+194.461C152.009+194.461+142.566+185.018+142.566+173.37Z" stroke-width="2" stroke-linecap="round"/>
<path stroke-linecap="round" stroke-width="2" opacity="1" d="M120.35+194.905C120.35+188.416+125.61+183.157+132.098+183.157C138.586+183.157+143.845+188.416+143.845+194.905C143.845+201.393+138.586+206.652+132.098+206.652C125.61+206.652+120.35+201.393+120.35+194.905Z" stroke="#000000" stroke-linejoin="round" fill="#8a8888" fill-rule="evenodd"/>
<path opacity="1" fill-rule="evenodd" stroke-width="2" stroke-linejoin="round" fill="#c33442" stroke="#000000" d="M102.14+175.499C102.14+170.376+106.51+166.224+111.9+166.224C117.291+166.224+121.661+170.376+121.661+175.499C121.661+180.621+117.291+184.773+111.9+184.773C106.51+184.773+102.14+180.621+102.14+175.499Z" stroke-linecap="round"/>
<path fill="#d2d1d1" stroke="#000000" opacity="1" d="M356.15+245.928L358.566+254.308L326.204+263.638L323.788+255.259L356.15+245.928Z" fill-rule="evenodd" stroke-linejoin="round" stroke-linecap="round" stroke-width="1"/>
<path fill-rule="evenodd" d="M296.827+258.659C296.827+247.011+306.27+237.568+317.918+237.568C329.567+237.568+339.009+247.011+339.009+258.659C339.009+270.307+329.567+279.75+317.918+279.75C306.27+279.75+296.827+270.307+296.827+258.659Z" fill="#051db8" stroke="#000000" stroke-linecap="round" stroke-linejoin="round" stroke-width="2" opacity="1"/>
<path stroke-linecap="round" stroke="#000000" fill-rule="evenodd" stroke-linejoin="round" fill="#c33442" stroke-width="2" opacity="1" d="M341.448+246.648C341.448+237.728+349.058+230.497+358.445+230.497C367.833+230.497+375.443+237.728+375.443+246.648C375.443+255.567+367.833+262.798+358.445+262.798C349.058+262.798+341.448+255.567+341.448+246.648Z"/>
<path stroke-linecap="round" stroke-linejoin="round" d="M346.291+213.173C346.291+207+351.295+201.996+357.468+201.996C363.641+201.996+368.645+207+368.645+213.173C368.645+219.346+363.641+224.35+357.468+224.35C351.295+224.35+346.291+219.346+346.291+213.173Z" fill-rule="evenodd" opacity="1" fill="#8a8888" stroke-width="2" stroke="#000000"/>
<path fill="#c2c0c0" opacity="1" fill-rule="evenodd" d="M121.17+195.198C121.17+189.421+126.2+184.32+131.499+184.32C136.798+184.32+140.572+189.265+140.572+195.042C140.572+200.82+137.056+205.578+131.757+205.578C126.458+205.578+121.17+200.975+121.17+195.198Z"/>
<path fill-rule="evenodd" d="M126.947+207.899C126.947+204.838+129.558+202.357+132.779+202.357C136+202.357+138.612+204.838+138.612+207.899C138.612+210.96+136+213.441+132.779+213.441C129.558+213.441+126.947+210.96+126.947+207.899Z" stroke-linejoin="round" opacity="1" stroke-width="2" stroke="#000000" fill="#051db7" stroke-linecap="round"/>
<path fill-rule="evenodd" d="M128.014+207.885C128.014+206.713+128.508+205.537+129.408+204.716C130.281+203.919+131.624+203.423+132.521+203.423C134.342+203.423+136.133+205.81+136.12+208.189C136.106+210.65+133.669+212.42+132.658+212.42C131.847+212.42+130.561+212.047+129.69+211.354C128.606+210.49+128.014+209.166+128.014+207.885Z" fill="#1e38dd" opacity="1"/>
<path opacity="1" fill="#1e38dd" fill-rule="evenodd" d="M298.024+258.65C298.024+247.536+306.166+238.527+316.209+238.527C323.312+238.527+329.464+243.033+332.457+249.602C333.696+252.322+334.394+255.396+334.394+258.65C334.394+269.763+326.253+278.773+316.209+278.773C306.166+278.773+298.024+269.763+298.024+258.65Z"/>
<path stroke-width="2" d="M294.058+273.092C294.058+269.318+297.117+266.258+300.891+266.258C304.666+266.258+307.725+269.318+307.725+273.092C307.725+276.866+304.666+279.926+300.891+279.926C297.117+279.926+294.058+276.866+294.058+273.092Z" stroke-linejoin="round" stroke="#000000" fill="#c33442" stroke-linecap="round" opacity="1" fill-rule="evenodd"/>
<path d="M342.417+246.455C342.417+238.275+348.735+231.643+356.529+231.643C364.322+231.643+370.64+238.275+370.64+246.455C370.64+254.636+365.231+261.699+357.438+261.699C349.644+261.699+342.417+254.636+342.417+246.455Z" opacity="1" fill-rule="evenodd" fill="#e84050"/>
<path fill-rule="evenodd" opacity="1" d="M295.207+273.059C295.207+269.898+297.418+267.335+300.145+267.335C302.872+267.335+305.082+269.898+305.082+273.059C305.082+276.219+302.872+278.782+300.145+278.782C297.418+278.782+295.207+276.219+295.207+273.059Z" fill="#ea4151"/>
<path opacity="1" fill-rule="evenodd" d="M103.153+175.411C103.153+171.04+106.493+167.497+110.615+167.497C114.736+167.497+118.076+171.04+118.076+175.411C118.076+179.781+114.736+183.324+110.615+183.324C106.493+183.324+103.153+179.781+103.153+175.411Z" fill="#e84050"/>
<path fill-rule="evenodd" fill="#c2c0c0" opacity="1" d="M347.373+213.236C347.373+207.727+351.387+203.261+356.338+203.261C361.289+203.261+365.303+207.727+365.303+213.236C365.303+218.745+361.289+223.211+356.338+223.211C351.387+223.211+347.373+218.745+347.373+213.236Z"/>
<path fill-rule="evenodd" opacity="1" d="M143.941+173.294C143.941+162.586+151.707+153.905+161.287+153.905C170.867+153.905+178.633+162.586+178.633+173.294C178.633+184.002+170.867+192.683+161.287+192.683C151.707+192.683+143.941+184.002+143.941+173.294Z" fill="#1e38dd"/>
</g>
</svg>
