<?xml version="1.0" encoding="UTF-8" standalone="no"?> <!-- Created with Vectornator for iOS (http://vectornator.io/) --><!DOCTYPE svg PUBLIC "-//W3C//DTD SVG 1.1//EN" "http://www.w3.org/Graphics/SVG/1.1/DTD/svg11.dtd">
<svg xml:space="preserve" style="fill-rule:nonzero;clip-rule:evenodd;stroke-linecap:round;stroke-linejoin:round;" xmlns:vectornator="http://vectornator.io" version="1.1" height="100%" width="100%" viewBox="0 0 419.58 297.675" xmlns="http://www.w3.org/2000/svg" xmlns:xlink="http://www.w3.org/1999/xlink">
<metadata>
<vectornator:setting value="false" key="WDDisplayWhiteBackground"/>
<vectornator:setting key="WDSnapToGrid" value="false"/>
<vectornator:setting value="false" key="WDCMYKEnabledKey"/>
<vectornator:setting key="UndoHistoryDisabled" value="false"/>
<vectornator:setting key="WDDynamicGuides" value="false"/>
<vectornator:setting value="Millimeters" key="WDUnits"/>
<vectornator:setting key="VNPencilOnly" value="false"/>
<vectornator:setting key="WDIsolateActiveLayer" value="false"/>
<vectornator:setting key="WDSnapToEdges" value="false"/>
<vectornator:setting value="true" key="VNSnapToGuides"/>
<vectornator:setting key="VNDimensionsVisible" value="true"/>
<vectornator:setting value="false" key="IsTimeLapseWatermarkDisabled"/>
<vectornator:setting value="true" key="WDGuidesVisible"/>
<vectornator:setting value="false" key="WDOutlineMode"/>
<vectornator:setting key="WDRulersVisible" value="true"/>
<vectornator:setting key="WDSnapToPoints" value="false"/>
</metadata>
<defs/>
<g id="Layer 3" vectornator:layerName="Layer 3">
<path stroke-width="2" stroke-linejoin="round" opacity="1" stroke-linecap="round" d="M114.38+251.077C103.485+247.646+97.1869+243.588+97.1869+239.24C97.1869+226.911+147.822+216.917+210.283+216.917C272.744+216.917+323.378+226.911+323.378+239.24C323.378+251.568+272.744+261.563+210.283+261.563C169.851+261.563+134.375+257.375+114.38+251.077" stroke="#ffffff" fill="#000000"/>
<path stroke-linecap="round" d="M96.7933+202.679L97.0622+238.787" fill="none" stroke-linejoin="round" stroke-width="2" stroke="#ffffff" opacity="1"/>
<path d="M323.198+201.914L323.3+239.261" stroke-linejoin="round" stroke-width="2" stroke-linecap="round" fill="none" stroke="#ffffff" opacity="1"/>
</g>
<g id="Layer 4" vectornator:layerName="Layer 4">
<path d="M97.8291+202.453L321.868+202.557L322.194+239.545L98.1454+239.572L98.1674+236.687L97.8291+202.453Z" opacity="1" fill="#000000"/>
</g>
<g id="Layer 2" vectornator:layerName="Layer 2">
<path stroke-linecap="round" stroke="#ffffff" stroke-linejoin="round" opacity="1" fill="#000000" stroke-width="2" d="M96.7921+201.852C96.7921+189.523+147.427+179.529+209.888+179.529C272.349+179.529+322.984+189.523+322.984+201.852C322.984+214.18+272.349+224.175+209.888+224.175C147.427+224.175+96.7921+214.18+96.7921+201.852Z"/>
</g>
<g vectornator:layerName="Layer 5" id="Layer 5">
<g opacity="1">
<path d="M148.478+252.632L138.928+230.045L138.389+247.732C138.339+249.359+138.484+250.38+138.823+250.794C139.288+251.355+140.041+251.652+141.082+251.683L142.019+251.712L141.997+252.434L132.783+252.153L132.805+251.431L133.742+251.459C134.861+251.494+135.665+251.179+136.154+250.517C136.453+250.109+136.626+249.164+136.671+247.68L137.198+230.383C137.234+229.212+137.13+228.362+136.885+227.833C136.715+227.45+136.389+227.125+135.909+226.856C135.429+226.587+134.648+226.436+133.568+226.403L133.59+225.681L141.087+225.91L150.06+246.916L160.14+226.491L167.637+226.72L167.615+227.442L166.697+227.414C165.565+227.379+164.754+227.693+164.265+228.356C163.966+228.764+163.794+229.709+163.749+231.193L163.221+248.49C163.171+250.117+163.323+251.137+163.675+251.552C164.14+252.113+164.893+252.41+165.934+252.441L166.851+252.469L166.829+253.192L155.584+252.849L155.607+252.126L156.544+252.155C157.676+252.19+158.48+251.875+158.956+251.213C159.255+250.805+159.427+249.859+159.473+248.375L160.012+230.688L149.123+252.652L148.478+252.632Z" fill="#fcfcfc" opacity="1"/>
</g>
<g opacity="1">
<path fill="#fcfcfc" d="M180.252+227.171C180.799+227.178+181.262+227.375+181.642+227.764C182.021+228.153+182.207+228.621+182.201+229.168C182.194+229.715+181.996+230.181+181.607+230.567C181.218+230.953+180.75+231.142+180.203+231.135C179.657+231.129+179.19+230.928+178.805+230.532C178.419+230.137+178.229+229.666+178.236+229.119C178.243+228.572+178.441+228.109+178.829+227.729C179.218+227.35+179.693+227.164+180.252+227.171ZM181.758+236.546L181.58+250.92C181.566+252.039+181.638+252.786+181.796+253.159C181.955+253.532+182.192+253.811+182.509+253.998C182.825+254.184+183.407+254.282+184.253+254.293L184.245+254.996L175.554+254.888L175.563+254.185C176.435+254.196+177.022+254.119+177.323+253.953C177.625+253.788+177.866+253.511+178.047+253.122C178.227+252.734+178.324+251.986+178.338+250.879L178.423+243.985C178.447+242.045+178.404+240.788+178.294+240.214C178.208+239.796+178.069+239.505+177.875+239.34C177.682+239.174+177.416+239.09+177.078+239.086C176.713+239.081+176.269+239.173+175.746+239.362L175.481+238.656L180.898+236.535L181.758+236.546Z" opacity="1"/>
</g>
<g opacity="1">
<path d="M209.724+255.909L199.49+233.624L199.49+251.319C199.49+252.947+199.665+253.963+200.017+254.366C200.499+254.913+201.261+255.187+202.302+255.187L203.24+255.187L203.24+255.909L194.021+255.909L194.021+255.187L194.958+255.187C196.078+255.187+196.873+254.848+197.341+254.171C197.628+253.754+197.771+252.804+197.771+251.319L197.771+234.015C197.771+232.843+197.641+231.997+197.38+231.476C197.198+231.098+196.863+230.782+196.374+230.528C195.886+230.274+195.102+230.148+194.021+230.148L194.021+229.425L201.521+229.425L211.13+250.148L220.583+229.425L228.083+229.425L228.083+230.148L227.165+230.148C226.033+230.148+225.232+230.486+224.763+231.163C224.477+231.58+224.333+232.53+224.333+234.015L224.333+251.319C224.333+252.947+224.516+253.963+224.88+254.366C225.362+254.913+226.124+255.187+227.165+255.187L228.083+255.187L228.083+255.909L216.833+255.909L216.833+255.187L217.771+255.187C218.904+255.187+219.698+254.848+220.154+254.171C220.44+253.754+220.583+252.804+220.583+251.319L220.583+233.624L210.369+255.909L209.724+255.909Z" fill="#fcfcfc" opacity="1"/>
</g>
<g opacity="1">
<path fill="#fcfcfc" opacity="1" d="M249.502+254.111L249.498+254.834L238.15+254.763L238.155+254.04L239.092+254.046C240.186+254.053+240.982+253.739+241.481+253.104C241.796+252.689+241.958+251.688+241.968+250.099L242.074+232.99C242.083+231.649+242.003+230.763+241.837+230.332C241.709+230.006+241.444+229.724+241.041+229.488C240.47+229.172+239.872+229.012+239.247+229.008L238.31+229.002L238.314+228.279L249.662+228.35L249.657+229.072L248.7+229.066C247.62+229.06+246.83+229.374+246.331+230.009C246.003+230.423+245.834+231.425+245.824+233.013L245.718+250.122C245.71+251.464+245.789+252.35+245.955+252.78C246.084+253.107+246.355+253.388+246.771+253.625C247.329+253.941+247.92+254.101+248.545+254.105L249.502+254.111Z"/>
</g>
<g opacity="1">
<path d="M284.725+252.382L277.656+252.519L268.451+240.314C267.788+240.353+267.248+240.376+266.831+240.384C266.662+240.387+266.48+240.388+266.284+240.385C266.089+240.382+265.887+240.377+265.678+240.368L265.828+248.061C265.861+249.728+266.063+250.759+266.436+251.156C266.941+251.719+267.689+251.991+268.678+251.972L269.713+251.951L269.727+252.674L258.382+252.895L258.368+252.172L259.364+252.153C260.483+252.131+261.277+251.751+261.744+251.013C262.01+250.604+262.128+249.644+262.099+248.134L261.765+231.028C261.733+229.362+261.531+228.33+261.158+227.934C260.639+227.371+259.879+227.099+258.876+227.119L257.88+227.138L257.866+226.415L267.513+226.228C270.325+226.173+272.402+226.338+273.744+226.722C275.087+227.106+276.234+227.839+277.186+228.921C278.139+230.003+278.629+231.305+278.659+232.828C278.691+234.456+278.188+235.878+277.15+237.097C276.112+238.315+274.485+239.193+272.269+239.731L277.885+247.221C279.168+248.941+280.265+250.079+281.174+250.634C282.084+251.19+283.262+251.531+284.711+251.659L284.725+252.382ZM265.655+239.137C265.902+239.133+266.117+239.132+266.299+239.135C266.482+239.138+266.631+239.138+266.748+239.136C269.274+239.086+271.167+238.503+272.428+237.384C273.689+236.266+274.303+234.86+274.27+233.168C274.238+231.514+273.695+230.18+272.639+229.165C271.584+228.151+270.204+227.66+268.499+227.693C267.744+227.708+266.724+227.851+265.44+228.124L265.655+239.137Z" fill="#fcfcfc" opacity="1"/>
</g>
</g>
<g vectornator:layerName="Layer 1" id="Layer 1">
<path opacity="1" d="M210.085+26.5141L210.085+26.5141C259.056+26.5141+298.755+66.2128+298.755+115.184L298.755+115.184C298.755+164.154+259.056+203.853+210.085+203.853L210.085+203.853C161.114+203.853+121.416+164.154+121.416+115.184L121.416+115.184C121.416+66.2128+161.114+26.5141+210.085+26.5141Z" stroke-linecap="round" fill="#701dc0" stroke="#000000" stroke-width="3" stroke-linejoin="round"/>
<path fill="#932bf9" opacity="1" d="M203.723+28.1825L203.761+28.0849C248.085+28.0849+283.422+68.1159+283.422+115.216L283.422+115.216C283.422+162.315+247.49+200.497+203.165+200.497L203.165+200.497C158.841+200.497+122.909+162.315+122.909+115.216L122.909+115.216C122.909+68.1159+159.398+28.1825+203.723+28.1825Z"/>
</g>
<g id="Layer 6" vectornator:layerName="Layer 6">
<path opacity="1" d="M208.844+73.2812C200.333+73.5176+191.896+75.9318+184.688+80.5312C180.912+82.9404+177.487+85.9207+174.562+89.3125C171.709+92.6223+169.316+96.3217+167.531+100.312C161.132+114.623+163.145+132.11+173.281+144.188C177.656+149.4+183.386+153.523+189.781+155.875C200.709+159.894+213.44+158.566+223.094+151.969C225.913+150.042+228.445+147.684+230.594+145.031C238.861+134.823+240.628+120.384+234.281+108.75C226.936+95.2851+210.315+88.9721+196.156+95.4688C193.698+96.5966+191.424+98.1053+189.406+99.9062C182.445+106.121+179.064+115.393+181.25+124.594C184.095+136.569+196.198+144.883+208.406+141.75C210.123+141.309+211.77+140.655+213.312+139.781C220.059+135.962+224.102+128.176+222.625+120.469C221.14+112.716+214.072+106.737+206.031+107.781C204.268+108.01+202.655+108.604+201.094+109.438C202.968+108.65+204.894+108.195+206.938+108.25C208.694+108.297+210.43+108.714+212.031+109.438C213.395+110.054+214.657+110.886+215.75+111.906C221.621+117.385+221.585+126.594+216.188+132.375C214.582+134.094+212.579+135.454+210.375+136.281C208.76+136.887+207.035+137.193+205.312+137.25C196.411+137.543+189.163+130.591+188.156+121.938C187.241+114.07+191.089+106.354+197.938+102.375C199.728+101.335+201.701+100.589+203.719+100.125C215.621+97.3895+227.373+104.836+231.156+116.219C234.385+125.932+231.64+136.662+224.688+144.062C222.663+146.218+220.346+148.088+217.781+149.562C215.421+150.919+212.883+151.935+210.25+152.625C196.48+156.234+182.153+150.356+173.969+138.906C165.726+127.375+165.018+111.591+171.344+99.0312C173.413+94.9228+176.147+91.1505+179.406+87.9062C190.834+76.5327+208.084+72.5723+223.531+76.7812C230.838+78.7721+237.614+82.5558+243.281+87.5625C254.272+97.2723+260.487+111.366+260.906+125.969C261.085+132.179+260.172+138.235+258.438+144.188C260.292+138.25+261.31+132.17+261.25+125.938C261.102+110.514+254.533+95.6631+242.812+85.5625C237.349+80.8537+230.898+77.2498+223.969+75.2188C219.063+73.7809+213.95+73.1394+208.844+73.2812Z" fill="#df45e3"/>
</g>
<g vectornator:layerName="Layer 8" id="Layer 8">
<path stroke-linecap="round" stroke-linejoin="round" fill="#d2d1d1" d="M110.275+81.9245L114.197+87.2494L101.039+96.9428L97.1162+91.6178L110.275+81.9245Z" opacity="1" stroke="#000000" stroke-width="1"/>
<path d="M76.3158+77.9754L79.5679+74.9281L91.337+87.4879L88.0849+90.5352L76.3158+77.9754Z" opacity="1" fill="#d2d1d1" stroke="#000000" stroke-width="1" stroke-linecap="round" stroke-linejoin="round"/>
<path fill="#d2d1d1" stroke-linejoin="round" opacity="1" stroke-width="1" stroke="#000000" d="M317.647+120.475L322.805+120.75L323.487+136.965L318.329+136.69L317.647+120.475Z" stroke-linecap="round"/>
<path stroke-linecap="round" fill="#051db8" d="M323.331+103.495C323.331+101.065+325.405+99.0943+327.963+99.0943C330.52+99.0943+332.594+101.065+332.594+103.495C332.594+105.925+330.52+107.896+327.963+107.896C325.405+107.896+323.331+105.925+323.331+103.495Z" stroke-width="2" opacity="1" stroke="#000000" stroke-linejoin="round"/>
<path stroke-linecap="round" stroke-width="2" stroke-linejoin="round" opacity="1" d="M139.822+66.1593C139.822+62.3851+142.882+59.3255+146.656+59.3255C150.43+59.3255+153.49+62.3851+153.49+66.1593C153.49+69.9335+150.43+72.9932+146.656+72.9932C142.882+72.9932+139.822+69.9335+139.822+66.1593Z" stroke="#000000" fill="#c33442"/>
</g>
<g id="Layer 7" vectornator:layerName="Layer 7">
<path fill="#051db7" stroke="#000000" stroke-width="2" stroke-linejoin="round" stroke-linecap="round" d="M105.878+72.156C105.878+60.5077+115.321+51.065+126.969+51.065C138.617+51.065+148.06+60.5077+148.06+72.156C148.06+83.8042+138.617+93.247+126.969+93.247C115.321+93.247+105.878+83.8042+105.878+72.156Z" opacity="1"/>
<path opacity="1" d="M83.6619+93.6907C83.6619+87.2026+88.9216+81.943+95.4096+81.943C101.898+81.943+107.157+87.2026+107.157+93.6907C107.157+100.179+101.898+105.438+95.4096+105.438C88.9216+105.438+83.6619+100.179+83.6619+93.6907Z" fill="#8a8888" stroke-linejoin="round" stroke-linecap="round" stroke-width="2" stroke="#000000"/>
<path stroke-linejoin="round" stroke-width="2" d="M65.4515+74.2848C65.4515+69.1626+69.8215+65.0103+75.2122+65.0103C80.6029+65.0103+84.9729+69.1626+84.9729+74.2848C84.9729+79.4069+80.6029+83.5592+75.2122+83.5592C69.8215+83.5592+65.4515+79.4069+65.4515+74.2848Z" stroke-linecap="round" stroke="#000000" opacity="1" fill="#c33442"/>
<path stroke-linejoin="round" opacity="1" d="M319.462+144.714L321.878+153.094L289.516+162.424L287.1+154.045L319.462+144.714Z" fill="#d2d1d1" stroke-linecap="round" stroke="#000000" stroke-width="1"/>
<path stroke="#000000" stroke-width="2" fill="#051db8" stroke-linecap="round" stroke-linejoin="round" d="M260.139+157.445C260.139+145.797+269.582+136.354+281.23+136.354C292.879+136.354+302.321+145.797+302.321+157.445C302.321+169.093+292.879+178.536+281.23+178.536C269.582+178.536+260.139+169.093+260.139+157.445Z" opacity="1"/>
<path stroke-width="2" stroke="#000000" stroke-linecap="round" d="M304.76+145.434C304.76+136.514+312.37+129.283+321.757+129.283C331.145+129.283+338.755+136.514+338.755+145.434C338.755+154.353+331.145+161.584+321.757+161.584C312.37+161.584+304.76+154.353+304.76+145.434Z" opacity="1" fill="#c33442" stroke-linejoin="round"/>
<path d="M309.603+111.959C309.603+105.786+314.607+100.782+320.78+100.782C326.953+100.782+331.957+105.786+331.957+111.959C331.957+118.132+326.953+123.136+320.78+123.136C314.607+123.136+309.603+118.132+309.603+111.959Z" opacity="1" stroke-width="2" stroke-linecap="round" stroke="#000000" stroke-linejoin="round" fill="#8a8888"/>
<path d="M84.4815+93.9845C84.4815+88.2074+89.5117+83.1066+94.811+83.1066C100.11+83.1066+103.884+88.0515+103.884+93.8286C103.884+99.6057+100.368+104.364+95.069+104.364C89.7697+104.364+84.4815+99.7616+84.4815+93.9845Z" fill="#c2c0c0" opacity="1"/>
<path stroke="#000000" stroke-width="2" d="M90.2587+106.685C90.2587+103.624+92.87+101.143+96.0911+101.143C99.3123+101.143+101.924+103.624+101.924+106.685C101.924+109.746+99.3123+112.227+96.0911+112.227C92.87+112.227+90.2587+109.746+90.2587+106.685Z" stroke-linejoin="round" opacity="1" fill="#051db7" stroke-linecap="round"/>
<path d="M91.326+106.671C91.326+105.499+91.8195+104.323+92.7197+103.502C93.5926+102.705+94.9363+102.209+95.8328+102.209C97.6539+102.209+99.4449+104.596+99.4317+106.975C99.4181+109.436+96.9805+111.206+95.9696+111.206C95.1585+111.206+93.8728+110.833+93.0022+110.14C91.9182+109.276+91.326+107.952+91.326+106.671Z" fill="#1e38dd" opacity="1"/>
<path opacity="1" fill="#1e38dd" d="M261.336+157.436C261.336+146.322+269.478+137.313+279.521+137.313C286.624+137.313+292.776+141.819+295.769+148.388C297.008+151.108+297.706+154.182+297.706+157.436C297.706+168.549+289.565+177.559+279.521+177.559C269.478+177.559+261.336+168.549+261.336+157.436Z"/>
<path fill="#c33442" stroke="#000000" d="M257.37+171.878C257.37+168.104+260.429+165.044+264.203+165.044C267.978+165.044+271.037+168.104+271.037+171.878C271.037+175.652+267.978+178.712+264.203+178.712C260.429+178.712+257.37+175.652+257.37+171.878Z" stroke-width="2" stroke-linecap="round" opacity="1" stroke-linejoin="round"/>
<path d="M305.729+145.241C305.729+137.061+312.047+130.429+319.841+130.429C327.634+130.429+333.952+137.061+333.952+145.241C333.952+153.422+328.543+160.485+320.75+160.485C312.956+160.485+305.729+153.422+305.729+145.241Z" opacity="1" fill="#e84050"/>
<path d="M258.519+171.845C258.519+168.684+260.73+166.121+263.457+166.121C266.184+166.121+268.394+168.684+268.394+171.845C268.394+175.005+266.184+177.568+263.457+177.568C260.73+177.568+258.519+175.005+258.519+171.845Z" opacity="1" fill="#ea4151"/>
<path d="M66.4646+74.1968C66.4646+69.8262+69.8054+66.2831+73.9265+66.2831C78.0476+66.2831+81.3884+69.8262+81.3884+74.1968C81.3884+78.5673+78.0476+82.1104+73.9265+82.1104C69.8054+82.1104+66.4646+78.5673+66.4646+74.1968Z" fill="#e84050" opacity="1"/>
<path opacity="1" d="M310.685+112.022C310.685+106.513+314.699+102.047+319.65+102.047C324.601+102.047+328.615+106.513+328.615+112.022C328.615+117.531+324.601+121.997+319.65+121.997C314.699+121.997+310.685+117.531+310.685+112.022Z" fill="#c2c0c0"/>
</g>
<g vectornator:layerName="Layer 9" id="Layer 9">
<path d="M107.253+72.0802C107.253+61.3721+115.019+52.6916+124.599+52.6916C134.179+52.6916+141.945+61.3721+141.945+72.0802C141.945+82.7883+134.179+91.4689+124.599+91.4689C115.019+91.4689+107.253+82.7883+107.253+72.0802Z" opacity="1" fill="#1e38dd"/>
</g>
</svg>
