<?xml version="1.0" encoding="UTF-8" standalone="no"?> <!-- Created with Vectornator for iOS (http://vectornator.io/) --><!DOCTYPE svg PUBLIC "-//W3C//DTD SVG 1.1//EN" "http://www.w3.org/Graphics/SVG/1.1/DTD/svg11.dtd">
<svg height="100%" xmlns="http://www.w3.org/2000/svg" viewBox="0 0 77 64" xml:space="preserve" style="fill-rule:nonzero;clip-rule:evenodd;stroke-linecap:round;stroke-linejoin:round;" width="100%" xmlns:xlink="http://www.w3.org/1999/xlink" version="1.1" xmlns:vectornator="http://vectornator.io">
<metadata>
<vectornator:setting value="false" key="WDSnapToEdges"/>
<vectornator:setting key="WDGuidesVisible" value="true"/>
<vectornator:setting key="WDCMYKEnabledKey" value="false"/>
<vectornator:setting key="WDSnapToPoints" value="false"/>
<vectornator:setting value="false" key="WDIsolateActiveLayer"/>
<vectornator:setting value="false" key="WDDynamicGuides"/>
<vectornator:setting value="false" key="WDOutlineMode"/>
<vectornator:setting key="WDUnits" value="Points"/>
<vectornator:setting key="WDRulersVisible" value="true"/>
<vectornator:setting value="false" key="VNPencilOnly"/>
<vectornator:setting key="VNDimensionsVisible" value="true"/>
<vectornator:setting key="IsTimeLapseWatermarkDisabled" value="false"/>
<vectornator:setting key="WDSnapToGrid" value="false"/>
<vectornator:setting key="VNSnapToGuides" value="true"/>
<vectornator:setting key="WDDisplayWhiteBackground" value="false"/>
<vectornator:setting key="UndoHistoryDisabled" value="false"/>
</metadata>
<defs/>
<g vectornator:layerName="Layer 1" id="Layer 1">
<path stroke-linecap="round" fill-rule="evenodd" d="M15.7499+57.49C12.9854+56.6194+11.3872+55.5897+11.3872+54.4864C11.3872+51.358+24.2357+48.822+40.0849+48.822C55.934+48.822+68.7822+51.358+68.7822+54.4864C68.7822+57.6146+55.934+60.1507+40.0849+60.1507C29.8254+60.1507+20.8236+59.0881+15.7499+57.49" fill="#000000" stroke-width="0.3" stroke="#ffffff" stroke-linejoin="round" opacity="1"/>
<path stroke="#ffffff" d="M11.2874+45.2092L11.3556+54.3714" stroke-width="0.3" stroke-linecap="round" opacity="1" stroke-linejoin="round" fill="none"/>
<path stroke-linejoin="round" stroke="#ffffff" d="M68.7679+44.972L68.7938+54.4487" stroke-width="0.3" opacity="1" stroke-linecap="round" fill="none"/>
<path fill="#000000" opacity="1" fill-rule="evenodd" d="M11.47+45.1519L68.5219+45.1786L68.6049+54.6933L11.5506+54.7003L11.5562+53.9581L11.47+45.1519Z"/>
<path stroke-linecap="round" d="M11.2871+44.9994C11.2871+41.8709+24.1354+39.335+39.9846+39.335C55.8338+39.335+68.6822+41.8709+68.6822+44.9994C68.6822+48.1275+55.8338+50.6637+39.9846+50.6637C24.1354+50.6637+11.2871+48.1275+11.2871+44.9994Z" fill-rule="evenodd" stroke-linejoin="round" stroke="#ffffff" stroke-width="0.3" opacity="1" fill="#000000"/>
<path d="M24.4021+57.8845L21.9789+52.1532L21.8421+56.6412C21.8294+57.054+21.8662+57.3131+21.9522+57.4182C22.0702+57.5605+22.2613+57.6359+22.5254+57.6437L22.7632+57.6511L22.7576+57.8343L20.4196+57.763L20.4252+57.5798L20.6629+57.5869C20.9469+57.5958+21.1509+57.5159+21.275+57.3479C21.3508+57.2443+21.3947+57.0046+21.4062+56.628L21.5399+52.239C21.549+51.9418+21.5226+51.7261+21.4605+51.5919C21.4173+51.4947+21.3346+51.4123+21.2128+51.344C21.091+51.2757+20.8928+51.2374+20.6188+51.2291L20.6244+51.0459L22.5267+51.104L24.8035+56.4341L27.3613+51.2514L29.2636+51.3095L29.258+51.4927L29.0251+51.4856C28.7379+51.4767+28.5321+51.5564+28.408+51.7246C28.3321+51.8282+28.2885+52.0679+28.2771+52.4445L28.1431+56.8335C28.1304+57.2464+28.169+57.5052+28.2583+57.6105C28.3763+57.7529+28.5674+57.8282+28.8315+57.8361L29.0642+57.8432L29.0586+58.0266L26.2052+57.9396L26.2111+57.7562L26.4488+57.7635C26.7361+57.7724+26.9401+57.6925+27.0609+57.5245C27.1367+57.4209+27.1804+57.1809+27.1921+56.8043L27.3288+52.3164L24.5658+57.8896L24.4021+57.8845Z" opacity="1" fill-rule="evenodd" fill="#fcfcfc"/>
<path fill="#fcfcfc" opacity="1" d="M32.4646+51.4239C32.6034+51.4257+32.7209+51.4757+32.8173+51.5744C32.9135+51.6731+32.9607+51.7919+32.9592+51.9307C32.9574+52.0695+32.9072+52.1877+32.8084+52.2857C32.7097+52.3836+32.591+52.4316+32.4522+52.4298C32.3136+52.4283+32.1951+52.3773+32.0975+52.2768C31.9995+52.1765+31.9513+52.057+31.9531+51.9182C31.9549+51.7794+32.0051+51.6619+32.1035+51.5655C32.2023+51.4694+32.3228+51.4222+32.4646+51.4239ZM32.8468+53.8028L32.8016+57.4501C32.798+57.7341+32.8163+57.9236+32.8564+58.0183C32.8968+58.1129+32.9569+58.1837+33.0373+58.2312C33.1175+58.2784+33.2652+58.3032+33.4799+58.306L33.4778+58.4844L31.2725+58.457L31.2748+58.2786C31.4961+58.2814+31.645+58.2619+31.7214+58.2197C31.798+58.1779+31.8592+58.1076+31.9051+58.0089C31.9508+57.9104+31.9754+57.7206+31.979+57.4397L32.0005+55.6904C32.0066+55.1981+31.9957+54.8792+31.9678+54.7335C31.946+54.6275+31.9107+54.5536+31.8615+54.5118C31.8125+54.4696+31.745+54.4483+31.6592+54.4473C31.5666+54.446+31.454+54.4694+31.3212+54.5173L31.254+54.3382L32.6285+53.8L32.8468+53.8028Z" fill-rule="evenodd"/>
<path fill-rule="evenodd" opacity="1" fill="#fcfcfc" d="M39.943+58.7161L37.3462+53.0614L37.3462+57.5514C37.3462+57.9645+37.3906+58.2223+37.4799+58.3245C37.6022+58.4633+37.7956+58.5329+38.0597+58.5329L38.2977+58.5329L38.2977+58.7161L35.9584+58.7161L35.9584+58.5329L36.1962+58.5329C36.4804+58.5329+36.6821+58.4468+36.8009+58.2751C36.8737+58.1692+36.91+57.9282+36.91+57.5514L36.91+53.1606C36.91+52.8632+36.877+52.6485+36.8108+52.5163C36.7646+52.4204+36.6796+52.3402+36.5555+52.2758C36.4317+52.2113+36.2327+52.1793+35.9584+52.1793L35.9584+51.9959L37.8615+51.9959L40.2998+57.2542L42.6984+51.9959L44.6015+51.9959L44.6015+52.1793L44.3686+52.1793C44.0813+52.1793+43.8781+52.2651+43.7591+52.4369C43.6865+52.5427+43.65+52.7838+43.65+53.1606L43.65+57.5514C43.65+57.9645+43.6964+58.2223+43.7888+58.3245C43.9111+58.4633+44.1044+58.5329+44.3686+58.5329L44.6015+58.5329L44.6015+58.7161L41.7469+58.7161L41.7469+58.5329L41.9849+58.5329C42.2724+58.5329+42.4739+58.4468+42.5896+58.2751C42.6621+58.1692+42.6984+57.9282+42.6984+57.5514L42.6984+53.0614L40.1067+58.7161L39.943+58.7161Z"/>
<path d="M50.0365+58.2598L50.0355+58.4433L47.156+58.4253L47.1572+58.2418L47.395+58.2433C47.6726+58.2451+47.8746+58.1654+48.0012+58.0043C48.0811+57.899+48.1222+57.645+48.1248+57.2418L48.1517+52.9005C48.154+52.5602+48.1337+52.3354+48.0915+52.226C48.0591+52.1433+47.9918+52.0717+47.8896+52.0119C47.7447+51.9317+47.5929+51.8911+47.4343+51.8901L47.1966+51.8885L47.1976+51.7051L50.0771+51.7231L50.0758+51.9063L49.833+51.9048C49.5589+51.9033+49.3585+51.9829+49.2319+52.1441C49.1486+52.2491+49.1058+52.5034+49.1032+52.9063L49.0763+57.2476C49.0743+57.5882+49.0943+57.813+49.1365+57.9221C49.1692+58.0051+49.238+58.0764+49.3435+58.1365C49.4851+58.2167+49.6351+58.2573+49.7937+58.2583L50.0365+58.2598Z" fill="#fcfcfc" fill-rule="evenodd" opacity="1"/>
<path fill-rule="evenodd" opacity="1" fill="#fcfcfc" d="M58.9742+57.8211L57.1804+57.8559L54.8447+54.7589C54.6765+54.7688+54.5395+54.7746+54.4336+54.7767C54.3908+54.7774+54.3446+54.7777+54.2948+54.7769C54.2454+54.7762+54.1941+54.7749+54.1411+54.7726L54.1791+56.7247C54.1875+57.1477+54.2388+57.4093+54.3334+57.51C54.4616+57.6529+54.6514+57.7219+54.9023+57.7171L55.1649+57.7117L55.1685+57.8952L52.2897+57.9513L52.2862+57.7678L52.5389+57.763C52.8229+57.7574+53.0243+57.661+53.1428+57.4737C53.2103+57.3699+53.2403+57.1264+53.2329+56.7432L53.1482+52.4026C53.14+51.9799+53.0888+51.718+52.9941+51.6175C52.8625+51.4747+52.6696+51.4057+52.4151+51.4107L52.1624+51.4156L52.1588+51.2321L54.6067+51.1847C55.3202+51.1707+55.8473+51.2126+56.1878+51.31C56.5286+51.4074+56.8196+51.5934+57.0612+51.868C57.303+52.1425+57.4273+52.4729+57.4349+52.8594C57.4431+53.2725+57.3154+53.6333+57.052+53.9426C56.7887+54.2517+56.3758+54.4745+55.8135+54.611L57.2385+56.5115C57.5641+56.948+57.8425+57.2367+58.0731+57.3776C58.304+57.5186+58.6029+57.6052+58.9706+57.6376L58.9742+57.8211ZM54.1352+54.4602C54.1979+54.4592+54.2525+54.459+54.2987+54.4597C54.3451+54.4605+54.3829+54.4605+54.4126+54.46C55.0535+54.4473+55.5339+54.2994+55.8539+54.0154C56.1738+53.7317+56.3296+53.375+56.3213+52.9456C56.3131+52.526+56.1754+52.1875+55.9074+51.9299C55.6397+51.6726+55.2895+51.548+54.8569+51.5564C54.6653+51.5602+54.4065+51.5965+54.0807+51.6658L54.1352+54.4602Z"/>
<path fill="#701dc0" d="M40.0346+0.508181L40.0346+0.508181C52.4608+0.508181+62.5342+10.5815+62.5342+23.0078L62.5342+23.0078C62.5342+35.4337+52.4608+45.5071+40.0346+45.5071L40.0346+45.5071C27.6084+45.5071+17.5353+35.4337+17.5353+23.0078L17.5353+23.0078C17.5353+10.5815+27.6084+0.508181+40.0346+0.508181Z" stroke-linejoin="round" opacity="1" fill-rule="evenodd" stroke-width="0.8" stroke="#000000" stroke-linecap="round"/>
<path opacity="1" d="M38.4203+0.931531L38.4299+0.906765C49.6769+0.906765+58.6435+11.0644+58.6435+23.0159L58.6435+23.0159C58.6435+34.967+49.526+44.6555+38.2787+44.6555L38.2787+44.6555C27.0317+44.6555+17.9141+34.967+17.9141+23.0159L17.9141+23.0159C17.9141+11.0644+27.173+0.931531+38.4203+0.931531Z" fill="#932bf9" fill-rule="evenodd"/>
<path opacity="1" fill-rule="evenodd" d="M39.5836+11.8472C37.282+11.9112+35.0004+12.564+33.0511+13.8078C32.03+14.4594+31.1038+15.2653+30.3128+16.1825C29.5413+17.0776+28.8942+18.078+28.4114+19.1571C26.681+23.0272+27.2254+27.7561+29.9664+31.0223C31.1495+32.4318+32.6991+33.5468+34.4284+34.1828C37.3837+35.2696+40.8264+34.9105+43.4371+33.1265C44.1995+32.6054+44.8842+31.9677+45.4653+31.2503C47.701+28.4898+48.1788+24.5851+46.4624+21.439C44.4761+17.7977+39.9814+16.0905+36.1524+17.8474C35.4877+18.1524+34.8727+18.5603+34.327+19.0474C32.4446+20.728+31.5303+23.2354+32.1214+25.7236C32.8908+28.9619+36.1638+31.2103+39.4651+30.363C39.9294+30.2438+40.3748+30.0669+40.7918+29.8306C42.6164+28.7978+43.7097+26.6923+43.3103+24.6081C42.9087+22.5115+40.9974+20.8946+38.8229+21.1769C38.3461+21.2388+37.9099+21.3995+37.4878+21.625C37.9945+21.4119+38.5154+21.2889+39.0681+21.3037C39.543+21.3164+40.0125+21.4292+40.4454+21.625C40.8143+21.7916+41.1556+22.0166+41.4511+22.2924C43.0388+23.7741+43.0291+26.2644+41.5696+27.8278C41.1353+28.2926+40.5936+28.6604+39.9976+28.8841C39.5609+29.0479+39.0944+29.1307+38.6284+29.1461C36.2214+29.2253+34.2613+27.3453+33.989+25.0053C33.7415+22.8776+34.7821+20.791+36.6343+19.715C37.1184+19.4337+37.6519+19.232+38.1976+19.1065C41.4162+18.3668+44.5943+20.3805+45.6173+23.4588C46.4905+26.0854+45.7482+28.9871+43.8682+30.9882C43.3206+31.5713+42.694+32.077+42.0004+32.4756C41.3622+32.8426+40.6758+33.1173+39.9638+33.3039C36.24+34.2799+32.3656+32.6903+30.1524+29.5939C27.9233+26.4756+27.7319+22.2072+29.4426+18.8107C30.0021+17.6997+30.7414+16.6796+31.6228+15.8022C34.7132+12.7265+39.378+11.6555+43.5553+12.7937C45.5313+13.3321+47.3637+14.3553+48.8962+15.7093C51.8685+18.3351+53.5492+22.1464+53.6625+26.0954C53.7109+27.7748+53.464+29.4125+52.9951+31.0223C53.4965+29.4165+53.7718+27.7723+53.7555+26.087C53.7155+21.916+51.9391+17.8999+48.7694+15.1684C47.2921+13.8951+45.5476+12.9205+43.6738+12.3712C42.3471+11.9824+40.9644+11.8089+39.5836+11.8472Z" fill="#df45e3"/>
<path d="M14.7083+14.5683L15.7035+15.9195L12.3647+18.3791L11.3693+17.0279L14.7083+14.5683Z" stroke="#000000" stroke-linejoin="round" fill-rule="evenodd" stroke-linecap="round" opacity="1" stroke-width="0.3" fill="#d2d1d1"/>
<path d="M6.0913+13.5662L6.91651+12.793L9.90286+15.98L9.07765+16.7532L6.0913+13.5662Z" fill="#d2d1d1" fill-rule="evenodd" stroke="#000000" stroke-width="0.3" stroke-linecap="round" stroke-linejoin="round" opacity="1"/>
<path d="M67.328+24.3503L68.6368+24.4201L68.8098+28.5346L67.501+28.4648L67.328+24.3503Z" fill="#d2d1d1" fill-rule="evenodd" stroke-linejoin="round" stroke-width="0.3" stroke="#000000" stroke-linecap="round" opacity="1"/>
<path d="M68.7703+20.0417C68.7703+19.4251+69.2965+18.9251+69.9456+18.9251C70.5944+18.9251+71.1207+19.4251+71.1207+20.0417C71.1207+20.6583+70.5944+21.1585+69.9456+21.1585C69.2965+21.1585+68.7703+20.6583+68.7703+20.0417Z" fill-rule="evenodd" stroke="#000000" fill="#051db8" stroke-linecap="round" opacity="1" stroke-linejoin="round" stroke-width="0.5"/>
<path fill-rule="evenodd" d="M22.2057+10.568C22.2057+9.61028+22.9822+8.83392+23.9398+8.83392C24.8974+8.83392+25.6739+9.61028+25.6739+10.568C25.6739+11.5257+24.8974+12.302+23.9398+12.302C22.9822+12.302+22.2057+11.5257+22.2057+10.568Z" opacity="1" stroke-linecap="round" stroke-linejoin="round" fill="#c33442" stroke="#000000" stroke-width="0.5"/>
<path fill="#051db7" stroke="#000000" opacity="1" fill-rule="evenodd" stroke-width="0.5" d="M13.5926+12.0896C13.5926+9.1339+15.9887+6.73786+18.9443+6.73786C21.8999+6.73786+24.2961+9.1339+24.2961+12.0896C24.2961+15.0453+21.8999+17.4413+18.9443+17.4413C15.9887+17.4413+13.5926+15.0453+13.5926+12.0896Z" stroke-linejoin="round" stroke-linecap="round"/>
<path stroke-linejoin="round" fill="#8a8888" stroke="#000000" d="M7.95534+17.5539C7.95534+15.9076+9.28996+14.573+10.9363+14.573C12.5827+14.573+13.9171+15.9076+13.9171+17.5539C13.9171+19.2003+12.5827+20.5348+10.9363+20.5348C9.28996+20.5348+7.95534+19.2003+7.95534+17.5539Z" opacity="1" fill-rule="evenodd" stroke-width="0.5" stroke-linecap="round"/>
<path fill-rule="evenodd" stroke="#000000" fill="#c33442" stroke-linejoin="round" stroke-width="0.5" d="M3.33453+12.6298C3.33453+11.33+4.4434+10.2764+5.81127+10.2764C7.17913+10.2764+8.288+11.33+8.288+12.6298C8.288+13.9295+7.17913+14.9831+5.81127+14.9831C4.4434+14.9831+3.33453+13.9295+3.33453+12.6298Z" opacity="1" stroke-linecap="round"/>
<path stroke-linecap="round" stroke-linejoin="round" opacity="1" d="M67.7885+30.5009L68.4016+32.6272L60.1899+34.9947L59.5768+32.8686L67.7885+30.5009Z" stroke-width="0.3" fill="#d2d1d1" stroke="#000000" fill-rule="evenodd"/>
<path d="M52.7356+33.7313C52.7356+30.7757+55.1317+28.3795+58.0873+28.3795C61.0432+28.3795+63.4391+30.7757+63.4391+33.7313C63.4391+36.6869+61.0432+39.083+58.0873+39.083C55.1317+39.083+52.7356+36.6869+52.7356+33.7313Z" opacity="1" fill="#051db8" stroke-linecap="round" stroke-width="0.5" stroke-linejoin="round" stroke="#000000" fill-rule="evenodd"/>
<path opacity="1" d="M64.058+30.6836C64.058+28.4201+65.989+26.5853+68.3709+26.5853C70.753+26.5853+72.684+28.4201+72.684+30.6836C72.684+32.9467+70.753+34.7815+68.3709+34.7815C65.989+34.7815+64.058+32.9467+64.058+30.6836Z" fill="#c33442" stroke="#000000" stroke-linejoin="round" stroke-width="0.5" stroke-linecap="round" fill-rule="evenodd"/>
<path stroke="#000000" fill="#8a8888" d="M65.2868+22.1894C65.2868+20.6231+66.5566+19.3533+68.1229+19.3533C69.6893+19.3533+70.9591+20.6231+70.9591+22.1894C70.9591+23.7558+69.6893+25.0255+68.1229+25.0255C66.5566+25.0255+65.2868+23.7558+65.2868+22.1894Z" opacity="1" fill-rule="evenodd" stroke-width="0.5" stroke-linecap="round" stroke-linejoin="round"/>
<path opacity="1" d="M8.16331+17.6285C8.16331+16.1626+9.4397+14.8683+10.7844+14.8683C12.129+14.8683+13.0866+16.123+13.0866+17.5889C13.0866+19.0548+12.1944+20.2622+10.8498+20.2622C9.50516+20.2622+8.16331+19.0944+8.16331+17.6285Z" fill="#c2c0c0" fill-rule="evenodd"/>
<path opacity="1" stroke-width="0.5" d="M9.62925+20.8512C9.62925+20.0745+10.2919+19.4449+11.1092+19.4449C11.9266+19.4449+12.5893+20.0745+12.5893+20.8512C12.5893+21.6279+11.9266+22.2574+11.1092+22.2574C10.2919+22.2574+9.62925+21.6279+9.62925+20.8512Z" fill-rule="evenodd" stroke-linecap="round" fill="#051db7" stroke="#000000" stroke-linejoin="round"/>
<path fill-rule="evenodd" fill="#1e38dd" d="M9.90007+20.8476C9.90007+20.5502+10.0253+20.2518+10.2537+20.0435C10.4752+19.8413+10.8162+19.7154+11.0436+19.7154C11.5057+19.7154+11.9602+20.3211+11.9569+20.9248C11.9534+21.5492+11.3349+21.9984+11.0784+21.9984C10.8725+21.9984+10.5463+21.9037+10.3254+21.7279C10.0503+21.5086+9.90007+21.1727+9.90007+20.8476Z" opacity="1"/>
<path fill-rule="evenodd" opacity="1" d="M53.0393+33.729C53.0393+30.9089+55.1053+28.6229+57.6537+28.6229C59.456+28.6229+61.0171+29.7663+61.7765+31.4331C62.0909+32.1233+62.268+32.9033+62.268+33.729C62.268+36.5489+60.2023+38.8351+57.6537+38.8351C55.1053+38.8351+53.0393+36.5489+53.0393+33.729Z" fill="#1e38dd"/>
<path stroke-linecap="round" opacity="1" stroke-width="0.5" fill-rule="evenodd" stroke-linejoin="round" d="M52.033+37.3936C52.033+36.436+52.8092+35.6595+53.7668+35.6595C54.7247+35.6595+55.5009+36.436+55.5009+37.3936C55.5009+38.3512+54.7247+39.1277+53.7668+39.1277C52.8092+39.1277+52.033+38.3512+52.033+37.3936Z" stroke="#000000" fill="#c33442"/>
<path d="M64.3038+30.6346C64.3038+28.5589+65.907+26.8761+67.8847+26.8761C69.8621+26.8761+71.4653+28.5589+71.4653+30.6346C71.4653+32.7105+70.0928+34.5027+68.1153+34.5027C66.1376+34.5027+64.3038+32.7105+64.3038+30.6346Z" opacity="1" fill="#e84050" fill-rule="evenodd"/>
<path opacity="1" fill-rule="evenodd" d="M52.3245+37.3852C52.3245+36.5831+52.8855+35.9328+53.5775+35.9328C54.2695+35.9328+54.8303+36.5831+54.8303+37.3852C54.8303+38.1871+54.2695+38.8374+53.5775+38.8374C52.8855+38.8374+52.3245+38.1871+52.3245+37.3852Z" fill="#ea4151"/>
<path fill-rule="evenodd" opacity="1" d="M3.5916+12.6074C3.5916+11.4984+4.43932+10.5994+5.48503+10.5994C6.53074+10.5994+7.37845+11.4984+7.37845+12.6074C7.37845+13.7164+6.53074+14.6155+5.48503+14.6155C4.43932+14.6155+3.5916+13.7164+3.5916+12.6074Z" fill="#e84050"/>
<path opacity="1" fill="#c2c0c0" d="M65.5614+22.2054C65.5614+20.8075+66.5799+19.6743+67.8362+19.6743C69.0925+19.6743+70.111+20.8075+70.111+22.2054C70.111+23.6033+69.0925+24.7365+67.8362+24.7365C66.5799+24.7365+65.5614+23.6033+65.5614+22.2054Z" fill-rule="evenodd"/>
<path fill="#1e38dd" fill-rule="evenodd" opacity="1" d="M13.9415+12.0704C13.9415+9.35324+15.9121+7.1506+18.3429+7.1506C20.7738+7.1506+22.7444+9.35324+22.7444+12.0704C22.7444+14.7875+20.7738+16.9902+18.3429+16.9902C15.9121+16.9902+13.9415+14.7875+13.9415+12.0704Z"/>
</g>
</svg>
